<svg data-v-fde0c5aa="" xmlns="http://www.w3.org/2000/svg" viewBox="0 0 300 300" class="iconLeft"><!----><defs data-v-fde0c5aa=""><!----></defs><rect data-v-fde0c5aa="" fill="transparent" x="0" y="0" width="300px" height="300px" class="logo-background-square"></rect><defs data-v-fde0c5aa=""><!----></defs><g data-v-fde0c5aa="" id="eb94530d-e748-4e6c-98e1-b3f1ea321e55" fill="#000000" transform="matrix(2.9784806229525143,0,0,2.9784806229525143,70.80690628214874,127.49013303289644)"><path d="M2.78 9.06L2.78 9.06L2.78 9.06Q3.10 8.88 3.15 9.19L3.15 9.19L3.15 9.19Q3.18 9.32 3.01 9.44L3.01 9.44L3.01 9.44Q2.94 9.50 2.87 9.53L2.87 9.53L2.87 9.53Q2.81 9.57 2.75 9.59L2.75 9.59L2.75 9.59Q2.60 9.66 2.47 9.69L2.47 9.69L2.47 9.69Q2.34 9.72 2.25 9.73L2.25 9.73L2.25 9.73Q2.07 9.75 1.87 9.75L1.87 9.75L1.87 9.75Q1.67 9.75 1.46 9.71L1.46 9.71L1.46 9.71Q1.01 9.65 0.74 9.41L0.74 9.41L0.74 9.41Q0.49 9.19 0.32 8.89L0.32 8.89L0.32 8.89Q0.16 8.59 0.05 8.29L0.05 8.29L0.04 8.24L0.04 8.24Q-0.02 8.05-0.00 7.80L-0.00 7.80L-0.00 7.80Q0.01 7.56 0.01 7.35L0.01 7.35L0.01 7.35Q0.01 7.18 0.01 7.06L0.01 7.06L0.01 7.06Q0.02 6.93 0.05 6.84L0.05 6.84L0.05 6.84Q0.10 6.67 0.27 6.38L0.27 6.38L0.27 6.38Q0.45 6.05 0.68 5.81L0.68 5.81L0.68 5.81Q0.92 5.57 1.31 5.49L1.31 5.49L1.31 5.49Q1.42 5.48 1.67 5.41L1.67 5.41L1.67 5.41Q1.74 5.39 1.84 5.37L1.84 5.37L1.84 5.37Q1.93 5.36 2.04 5.37L2.04 5.37L2.04 5.37Q2.13 5.37 2.25 5.39L2.25 5.39L2.25 5.39Q2.37 5.41 2.53 5.44L2.53 5.44L2.53 5.44Q2.64 5.48 2.86 5.58L2.86 5.58L2.86 5.58Q3.08 5.67 3.12 5.82L3.12 5.82L3.12 5.82Q3.13 5.88 3.10 5.94L3.10 5.94L3.10 5.94Q3.04 6.04 2.96 6.06L2.96 6.06L2.96 6.06Q2.91 6.08 2.84 6.06L2.84 6.06L2.84 6.06Q2.77 6.05 2.67 6.00L2.67 6.00L2.67 6.00Q2.53 5.93 2.41 5.88L2.41 5.88L2.41 5.88Q2.30 5.83 2.18 5.81L2.18 5.81L2.18 5.81Q2.06 5.78 1.93 5.79L1.93 5.79L1.93 5.79Q1.80 5.80 1.65 5.84L1.65 5.84L1.65 5.84Q1.30 5.95 1.16 6.02L1.16 6.02L1.16 6.02Q1.00 6.10 0.80 6.41L0.80 6.41L0.80 6.41Q0.64 6.65 0.55 6.91L0.55 6.91L0.55 6.91Q0.46 7.18 0.45 7.45L0.45 7.45L0.45 7.45Q0.44 7.73 0.50 8.00L0.50 8.00L0.50 8.00Q0.55 8.28 0.68 8.53L0.68 8.53L0.68 8.54L0.68 8.54L0.68 8.54Q0.98 9.08 1.52 9.22L1.52 9.22L1.52 9.22Q1.92 9.32 2.14 9.26L2.14 9.26L2.14 9.26Q2.20 9.26 2.26 9.24L2.26 9.24L2.26 9.24Q2.31 9.23 2.37 9.21L2.37 9.21L2.37 9.21Q2.60 9.17 2.78 9.06ZM6.24 7.01L6.24 7.01L6.24 7.01Q6.49 7.01 6.73 7.02L6.73 7.02L6.73 7.02Q6.98 7.03 7.23 7.07L7.23 7.07L7.23 7.07Q7.42 7.10 7.52 6.99L7.52 6.99L7.52 6.99Q7.59 6.90 7.59 6.78L7.59 6.78L7.59 6.78Q7.59 6.66 7.59 6.55L7.59 6.55L7.59 6.55Q7.59 6.38 7.59 6.25L7.59 6.25L7.59 6.25Q7.59 6.13 7.59 6.04L7.59 6.04L7.59 6.04Q7.59 6.00 7.60 5.93L7.60 5.93L7.60 5.93Q7.60 5.87 7.60 5.79L7.60 5.79L7.60 5.79Q7.61 5.72 7.62 5.65L7.62 5.65L7.62 5.65Q7.63 5.58 7.65 5.54L7.65 5.54L7.65 5.54Q7.71 5.40 7.88 5.41L7.88 5.41L7.88 5.41Q8.05 5.43 8.05 5.72L8.05 5.72L8.05 5.72Q8.05 5.89 8.03 6.06L8.03 6.06L8.03 6.06Q8.02 6.23 8.03 6.40L8.03 6.40L8.03 6.41L8.03 6.41Q8.03 6.68 8.05 6.95L8.05 6.95L8.05 6.95Q8.06 7.23 8.07 7.49L8.07 7.49L8.07 7.49Q8.09 7.66 8.07 7.82L8.07 7.82L8.07 7.82Q8.06 7.99 8.06 8.16L8.06 8.16L8.06 8.16Q8.05 8.44 8.05 8.73L8.05 8.73L8.05 8.73Q8.05 9.01 8.05 9.30L8.05 9.30L8.05 9.30Q8.05 9.55 8.00 9.63L8.00 9.63L8.00 9.63Q7.98 9.67 7.90 9.69L7.90 9.69L7.90 9.69Q7.65 9.75 7.62 9.47L7.62 9.47L7.62 9.47Q7.58 9.13 7.59 8.77L7.59 8.77L7.59 8.77Q7.60 8.42 7.59 8.06L7.59 8.06L7.59 8.06Q7.58 7.93 7.56 7.77L7.56 7.77L7.56 7.77Q7.53 7.62 7.42 7.52L7.42 7.52L7.42 7.52Q7.32 7.44 7.07 7.44L7.07 7.44L7.07 7.44Q6.95 7.44 6.83 7.44L6.83 7.44L6.83 7.44Q6.71 7.45 6.58 7.44L6.58 7.44L6.19 7.44L6.19 7.44Q6.07 7.45 5.95 7.44L5.95 7.44L5.95 7.44Q5.83 7.43 5.71 7.42L5.71 7.42L5.71 7.42Q5.45 7.40 5.32 7.49L5.32 7.49L5.32 7.49Q5.16 7.63 5.16 7.95L5.16 7.95L5.16 7.95Q5.16 8.16 5.17 8.38L5.17 8.38L5.17 8.38Q5.17 8.59 5.17 8.80L5.17 8.80L5.17 8.80Q5.17 8.97 5.17 9.10L5.17 9.10L5.17 9.10Q5.16 9.22 5.16 9.31L5.16 9.31L5.16 9.31Q5.15 9.41 5.15 9.47L5.15 9.47L5.15 9.47Q5.14 9.54 5.13 9.59L5.13 9.59L5.13 9.59Q5.05 9.73 4.89 9.69L4.89 9.69L4.89 9.69Q4.72 9.67 4.72 9.44L4.72 9.44L4.72 9.44Q4.72 9.21 4.72 9.00L4.72 9.00L4.72 9.00Q4.72 8.78 4.73 8.55L4.73 8.55L4.73 8.55Q4.74 8.34 4.73 8.12L4.73 8.12L4.73 8.12Q4.72 7.91 4.72 7.69L4.72 7.69L4.72 7.69Q4.72 7.34 4.73 6.99L4.73 6.99L4.73 6.99Q4.74 6.64 4.74 6.30L4.74 6.30L4.74 6.30Q4.74 6.24 4.74 6.15L4.74 6.15L4.74 6.15Q4.73 6.05 4.72 5.91L4.72 5.91L4.72 5.91Q4.71 5.61 4.74 5.54L4.74 5.54L4.74 5.54Q4.83 5.41 4.95 5.41L4.95 5.41L4.95 5.41Q5.15 5.42 5.17 5.74L5.17 5.74L5.17 5.74Q5.18 5.82 5.19 5.88L5.19 5.88L5.19 5.88Q5.19 5.94 5.19 5.99L5.19 5.99L5.19 5.99Q5.19 6.02 5.19 6.08L5.19 6.08L5.19 6.08Q5.19 6.15 5.17 6.23L5.17 6.23L5.17 6.23Q5.16 6.33 5.15 6.43L5.15 6.43L5.15 6.43Q5.13 6.54 5.13 6.63L5.13 6.63L5.13 6.63Q5.12 6.85 5.22 6.93L5.22 6.93L5.22 6.93Q5.32 7.01 5.49 6.98L5.49 6.98L5.49 6.98Q5.58 6.97 5.65 6.97L5.65 6.97L5.65 6.97Q5.72 6.97 5.77 6.97L5.77 6.97L5.77 6.97Q5.89 6.98 6.00 6.99L6.00 6.99L6.00 6.99Q6.12 7.01 6.24 7.01ZM10.19 9.70L10.19 9.70L10.19 9.70Q9.97 9.67 9.97 9.44L9.97 9.44L9.97 9.44Q9.96 9.07 9.96 8.72L9.96 8.72L9.96 8.72Q9.96 8.36 9.96 7.99L9.96 7.99L9.96 7.99Q9.96 7.79 9.98 7.58L9.98 7.58L9.98 7.58Q9.99 7.43 9.99 7.30L9.99 7.30L9.99 7.30Q9.99 7.17 9.99 7.06L9.99 7.06L9.99 7.06Q9.98 6.99 9.97 6.90L9.97 6.90L9.97 6.90Q9.97 6.80 9.96 6.67L9.96 6.67L9.96 6.67Q9.96 6.60 9.96 6.51L9.96 6.51L9.96 6.51Q9.97 6.41 9.97 6.28L9.97 6.28L9.97 6.28Q9.98 6.19 9.98 6.11L9.98 6.11L9.98 6.11Q9.99 6.04 9.99 5.99L9.99 5.99L9.99 5.84L9.99 5.83L9.99 5.78L9.99 5.78Q9.97 5.61 9.99 5.54L9.99 5.54L9.99 5.54Q10.01 5.49 10.08 5.44L10.08 5.44L10.08 5.44Q10.35 5.30 10.41 5.61L10.41 5.61L10.41 5.61Q10.47 5.84 10.48 6.07L10.48 6.07L10.48 6.07Q10.49 6.29 10.47 6.51L10.47 6.51L10.47 6.51L10.47 6.51Q10.45 6.73 10.46 6.94L10.46 6.94L10.46 6.94Q10.47 7.15 10.45 7.36L10.45 7.36L10.45 7.36Q10.42 7.55 10.41 7.68L10.41 7.68L10.41 7.68Q10.40 7.82 10.39 7.92L10.39 7.92L10.39 7.92Q10.38 8.05 10.38 8.20L10.38 8.20L10.38 8.20Q10.38 8.35 10.38 8.51L10.38 8.51L10.38 8.51Q10.39 8.54 10.39 8.59L10.39 8.59L10.39 8.59Q10.39 8.63 10.39 8.70L10.39 8.70L10.39 8.70Q10.39 8.80 10.39 8.91L10.39 8.91L10.39 8.91Q10.39 9.02 10.40 9.13L10.40 9.13L10.40 9.13Q10.40 9.20 10.40 9.27L10.40 9.27L10.40 9.27Q10.40 9.33 10.40 9.40L10.40 9.40L10.40 9.40Q10.40 9.54 10.39 9.55L10.39 9.55L10.39 9.55Q10.36 9.68 10.19 9.70ZM14.97 9.34L14.97 9.34L14.97 9.34Q15.05 9.40 15.05 9.50L15.05 9.50L15.05 9.50Q15.06 9.72 14.79 9.72L14.79 9.72L14.79 9.72Q14.29 9.72 13.80 9.71L13.80 9.71L13.80 9.71Q13.31 9.69 12.82 9.73L12.82 9.73L12.82 9.73Q12.43 9.75 12.35 9.52L12.35 9.52L12.35 9.52Q12.30 9.41 12.30 9.19L12.30 9.19L12.30 9.19Q12.31 9.08 12.31 8.99L12.31 8.99L12.31 8.99Q12.32 8.91 12.32 8.85L12.32 8.85L12.32 8.85Q12.33 8.70 12.34 8.53L12.34 8.53L12.34 8.53Q12.35 8.37 12.34 8.22L12.34 8.22L12.34 8.22Q12.33 7.89 12.31 7.58L12.31 7.58L12.31 7.58Q12.30 7.27 12.30 6.94L12.30 6.94L12.30 6.94Q12.31 6.78 12.32 6.63L12.32 6.63L12.32 6.63Q12.33 6.47 12.33 6.31L12.33 6.31L12.33 6.31Q12.33 6.11 12.33 5.94L12.33 5.94L12.33 5.94Q12.33 5.78 12.31 5.64L12.31 5.64L12.31 5.64Q12.30 5.46 12.48 5.42L12.48 5.42L12.48 5.42Q12.75 5.37 12.77 5.74L12.77 5.74L12.77 5.74Q12.78 5.89 12.79 6.04L12.79 6.04L12.79 6.04Q12.80 6.19 12.81 6.32L12.81 6.32L12.81 6.50L12.78 6.76L12.78 6.76Q12.77 6.87 12.76 6.98L12.76 6.98L12.76 6.98Q12.75 7.09 12.74 7.19L12.74 7.19L12.74 7.19Q12.73 7.45 12.73 7.65L12.73 7.65L12.73 7.65Q12.73 7.84 12.74 7.97L12.74 7.97L12.74 7.97Q12.75 8.13 12.75 8.31L12.75 8.31L12.75 8.31Q12.76 8.49 12.74 8.69L12.74 8.69L12.74 8.69Q12.73 8.99 12.82 9.08L12.82 9.08L12.82 9.08Q12.90 9.17 13.15 9.19L13.15 9.19L13.15 9.19Q13.27 9.21 13.39 9.21L13.39 9.21L13.39 9.21Q13.51 9.22 13.63 9.24L13.63 9.24L13.63 9.24Q13.82 9.26 14.01 9.24L14.01 9.24L14.01 9.24Q14.20 9.22 14.39 9.25L14.39 9.25L14.39 9.25Q14.51 9.26 14.69 9.27L14.69 9.27L14.69 9.27Q14.86 9.28 14.97 9.34ZM19.19 9.34L19.19 9.34L19.19 9.34Q19.27 9.40 19.27 9.50L19.27 9.50L19.27 9.50Q19.28 9.72 19.00 9.72L19.00 9.72L19.00 9.72Q18.51 9.72 18.02 9.71L18.02 9.71L18.02 9.71Q17.53 9.69 17.04 9.73L17.04 9.73L17.04 9.73Q16.65 9.75 16.56 9.52L16.56 9.52L16.56 9.52Q16.52 9.41 16.52 9.19L16.52 9.19L16.52 9.19Q16.53 9.08 16.53 8.99L16.53 8.99L16.53 8.99Q16.54 8.91 16.54 8.85L16.54 8.85L16.54 8.85Q16.54 8.70 16.55 8.53L16.55 8.53L16.55 8.53Q16.56 8.37 16.56 8.22L16.56 8.22L16.56 8.22Q16.54 7.89 16.53 7.58L16.53 7.58L16.53 7.58Q16.52 7.27 16.52 6.94L16.52 6.94L16.52 6.94Q16.53 6.78 16.54 6.63L16.54 6.63L16.54 6.63Q16.54 6.47 16.54 6.31L16.54 6.31L16.54 6.31Q16.55 6.11 16.55 5.94L16.55 5.94L16.55 5.94Q16.54 5.78 16.53 5.64L16.53 5.64L16.53 5.64Q16.52 5.46 16.70 5.42L16.70 5.42L16.70 5.42Q16.97 5.37 16.99 5.74L16.99 5.74L16.99 5.74Q17.00 5.89 17.01 6.04L17.01 6.04L17.01 6.04Q17.01 6.19 17.03 6.32L17.03 6.32L17.03 6.50L17.00 6.76L17.00 6.76Q16.99 6.87 16.98 6.98L16.98 6.98L16.98 6.98Q16.97 7.09 16.96 7.19L16.96 7.19L16.96 7.19Q16.95 7.45 16.95 7.65L16.95 7.65L16.95 7.65Q16.95 7.84 16.95 7.97L16.95 7.97L16.95 7.97Q16.97 8.13 16.97 8.31L16.97 8.31L16.97 8.31Q16.97 8.49 16.96 8.69L16.96 8.69L16.96 8.69Q16.95 8.99 17.04 9.08L17.04 9.08L17.04 9.08Q17.12 9.17 17.36 9.19L17.36 9.19L17.36 9.19Q17.49 9.21 17.61 9.21L17.61 9.21L17.61 9.21Q17.73 9.22 17.85 9.24L17.85 9.24L17.85 9.24Q18.03 9.26 18.22 9.24L18.22 9.24L18.22 9.24Q18.42 9.22 18.61 9.25L18.61 9.25L18.61 9.25Q18.73 9.26 18.90 9.27L18.90 9.27L18.90 9.27Q19.08 9.28 19.19 9.34ZM23.36 5.50L23.36 5.50L23.36 5.50Q23.71 5.21 23.75 5.67L23.75 5.67L23.75 5.67Q23.76 5.76 23.76 5.87L23.76 5.87L23.76 5.87Q23.76 5.97 23.75 6.08L23.75 6.08L23.75 6.08Q23.75 6.21 23.74 6.32L23.74 6.32L23.74 6.32Q23.74 6.44 23.74 6.56L23.74 6.56L23.74 6.56Q23.75 6.90 23.92 6.96L23.92 6.96L23.92 6.96Q24.08 7.02 24.25 6.82L24.25 6.82L24.25 6.82Q24.38 6.69 24.51 6.54L24.51 6.54L24.51 6.54Q24.65 6.39 24.81 6.25L24.81 6.25L24.81 6.25Q24.95 6.14 25.08 6.02L25.08 6.02L25.08 6.02Q25.21 5.89 25.34 5.77L25.34 5.77L25.34 5.77Q25.37 5.74 25.43 5.70L25.43 5.70L25.43 5.70Q25.48 5.65 25.57 5.58L25.57 5.58L25.57 5.58Q25.74 5.46 25.82 5.43L25.82 5.43L25.82 5.43Q25.97 5.41 26.04 5.51L26.04 5.51L26.04 5.51Q26.11 5.63 26.00 5.74L26.00 5.74L26.00 5.74Q25.90 5.87 25.83 5.96L25.83 5.96L25.83 5.96Q25.75 6.04 25.70 6.09L25.70 6.09L25.70 6.09Q25.61 6.19 25.35 6.38L25.35 6.38L25.35 6.38Q25.25 6.46 25.13 6.56L25.13 6.56L25.13 6.56Q25.01 6.65 24.92 6.75L24.92 6.75L24.92 6.75Q24.75 6.94 24.73 7.10L24.73 7.10L24.73 7.10Q24.72 7.18 24.74 7.28L24.74 7.28L24.74 7.28Q24.77 7.38 24.83 7.50L24.83 7.50L24.83 7.50Q24.90 7.62 24.96 7.74L24.96 7.74L24.96 7.74Q25.03 7.86 25.09 7.98L25.09 7.98L25.09 7.98Q25.13 8.05 25.16 8.11L25.16 8.11L25.16 8.11Q25.18 8.16 25.20 8.20L25.20 8.20L25.20 8.20L25.20 8.20Q25.35 8.50 25.59 8.78L25.59 8.78L25.59 8.78Q25.82 9.06 26.11 9.34L26.11 9.34L26.11 9.34Q26.26 9.48 26.11 9.63L26.11 9.63L26.11 9.63Q25.96 9.79 25.81 9.64L25.81 9.64L25.81 9.64Q25.28 9.14 25.03 8.74L25.03 8.74L25.03 8.74Q24.86 8.49 24.73 8.22L24.73 8.22L24.73 8.22Q24.60 7.95 24.48 7.68L24.48 7.68L24.48 7.68Q24.37 7.46 24.23 7.45L24.23 7.45L24.23 7.45Q24.10 7.45 23.92 7.67L23.92 7.67L23.92 7.67Q23.84 7.77 23.81 7.87L23.81 7.87L23.81 7.87Q23.78 7.97 23.76 8.08L23.76 8.08L23.76 8.08Q23.75 8.24 23.78 8.40L23.78 8.40L23.78 8.40Q23.82 8.57 23.80 8.72L23.80 8.72L23.80 8.72Q23.80 8.76 23.79 8.78L23.79 8.78L23.79 8.78Q23.76 8.97 23.75 9.14L23.75 9.14L23.75 9.14Q23.75 9.32 23.75 9.48L23.75 9.48L23.75 9.48Q23.75 9.68 23.53 9.70L23.53 9.70L23.53 9.70Q23.33 9.69 23.33 9.49L23.33 9.49L23.33 9.49Q23.33 9.16 23.32 8.84L23.32 8.84L23.32 8.84Q23.31 8.51 23.30 8.18L23.30 8.18L23.30 8.18Q23.28 7.94 23.32 7.69L23.32 7.69L23.32 7.69Q23.35 7.44 23.35 7.20L23.35 7.20L23.35 7.20Q23.35 7.11 23.35 7.01L23.35 7.01L23.35 7.01Q23.36 6.92 23.36 6.82L23.36 6.82L23.36 6.82Q23.37 6.47 23.36 6.33L23.36 6.33L23.28 5.91L23.28 5.91Q23.24 5.65 23.36 5.50ZM31.77 9.47L31.77 9.47L31.77 9.47Q31.77 9.65 31.63 9.69L31.63 9.69L31.63 9.69Q31.51 9.75 31.41 9.61L31.41 9.61L31.41 9.61Q31.36 9.54 31.33 9.49L31.33 9.49L31.33 9.49Q31.30 9.43 31.28 9.39L31.28 9.39L31.28 9.39Q31.19 9.18 31.11 9.03L31.11 9.03L31.11 9.03Q31.04 8.87 30.96 8.78L30.96 8.78L30.96 8.78Q30.80 8.55 30.60 8.49L30.60 8.49L30.60 8.49Q30.43 8.44 30.05 8.48L30.05 8.48L30.05 8.48Q29.83 8.50 29.64 8.51L29.64 8.51L29.64 8.51Q29.44 8.52 29.26 8.50L29.26 8.50L29.26 8.50Q28.87 8.48 28.68 8.76L28.68 8.76L28.66 8.78L28.66 8.79L28.66 8.79Q28.59 8.93 28.54 9.06L28.54 9.06L28.54 9.06Q28.50 9.19 28.44 9.32L28.44 9.32L28.29 9.54L28.29 9.54Q28.20 9.69 28.10 9.70L28.10 9.70L28.10 9.70Q28.05 9.72 27.96 9.65L27.96 9.65L27.96 9.65Q27.92 9.60 27.91 9.55L27.91 9.55L27.91 9.55Q27.90 9.49 27.91 9.43L27.91 9.43L27.91 9.43Q27.92 9.37 27.94 9.30L27.94 9.30L27.94 9.30Q27.97 9.24 27.99 9.19L27.99 9.19L28.15 8.85L28.15 8.85Q28.39 8.35 28.60 7.85L28.60 7.85L28.60 7.85Q28.81 7.34 29.04 6.83L29.04 6.83L29.04 6.83Q29.08 6.74 29.11 6.66L29.11 6.66L29.11 6.66Q29.14 6.58 29.18 6.51L29.18 6.51L29.18 6.51Q29.25 6.32 29.33 6.14L29.33 6.14L29.33 6.14Q29.40 5.95 29.50 5.76L29.50 5.76L29.60 5.61L29.60 5.61Q29.67 5.48 29.74 5.48L29.74 5.48L29.74 5.48Q29.81 5.46 29.92 5.59L29.92 5.59L29.92 5.59Q30.04 5.73 30.14 5.91L30.14 5.91L30.14 5.91Q30.25 6.10 30.32 6.26L30.32 6.26L30.32 6.26Q30.56 6.77 30.77 7.28L30.77 7.28L30.77 7.28Q30.98 7.79 31.22 8.28L31.22 8.28L31.22 8.28Q31.29 8.43 31.37 8.58L31.37 8.58L31.37 8.58Q31.44 8.74 31.52 8.88L31.52 8.88L31.52 8.88Q31.56 8.98 31.61 9.08L31.61 9.08L31.61 9.08Q31.65 9.17 31.69 9.27L31.69 9.27L31.69 9.27Q31.73 9.34 31.75 9.39L31.75 9.39L31.75 9.39Q31.77 9.44 31.77 9.47ZM30.42 7.56L30.42 7.56L30.42 7.56Q30.35 7.40 30.29 7.22L30.29 7.22L30.29 7.22Q30.22 7.05 30.13 6.88L30.13 6.88L30.13 6.88Q29.97 6.57 29.77 6.58L29.77 6.58L29.77 6.58Q29.70 6.58 29.64 6.62L29.64 6.62L29.64 6.62Q29.58 6.67 29.54 6.72L29.54 6.72L29.54 6.72Q29.50 6.78 29.46 6.85L29.46 6.85L29.46 6.85Q29.43 6.92 29.41 6.98L29.41 6.98L29.41 6.98Q29.33 7.18 29.26 7.40L29.26 7.40L29.26 7.40Q29.20 7.62 29.13 7.83L29.13 7.83L29.13 7.83Q29.09 7.98 29.15 8.05L29.15 8.05L29.15 8.05Q29.19 8.12 29.36 8.13L29.36 8.13L29.36 8.13Q29.51 8.14 29.63 8.15L29.63 8.15L29.63 8.15Q29.74 8.15 29.82 8.14L29.82 8.14L29.82 8.14Q29.97 8.14 30.21 8.10L30.21 8.10L30.21 8.10Q30.47 8.06 30.52 7.88L30.52 7.88L30.52 7.88Q30.54 7.77 30.49 7.69L30.49 7.69L30.49 7.69Q30.47 7.66 30.45 7.63L30.45 7.63L30.45 7.63Q30.43 7.59 30.42 7.56ZM36.18 5.67L36.18 5.67L36.18 5.67Q36.33 5.82 36.41 5.99L36.41 5.99L36.41 5.99Q36.50 6.16 36.59 6.34L36.59 6.34L36.59 6.34Q36.68 6.54 36.64 6.74L36.64 6.74L36.64 6.74Q36.61 6.94 36.42 7.13L36.42 7.13L36.42 7.13Q36.28 7.28 35.94 7.37L35.94 7.37L35.94 7.37Q35.82 7.40 35.68 7.44L35.68 7.44L35.68 7.44Q35.54 7.48 35.49 7.60L35.49 7.60L35.49 7.60Q35.44 7.72 35.51 7.84L35.51 7.84L35.51 7.84Q35.57 7.97 35.62 8.05L35.62 8.05L35.62 8.05Q35.66 8.13 35.68 8.18L35.68 8.18L35.68 8.18Q35.72 8.24 35.77 8.33L35.77 8.33L35.77 8.33Q35.83 8.42 35.90 8.52L35.90 8.52L35.90 8.52Q36.06 8.74 36.23 8.93L36.23 8.93L36.23 8.93Q36.41 9.13 36.59 9.30L36.59 9.30L36.62 9.34L36.62 9.34Q36.77 9.49 36.63 9.63L36.63 9.63L36.63 9.63Q36.47 9.79 36.33 9.64L36.33 9.64L36.33 9.64Q36.21 9.52 36.12 9.43L36.12 9.43L36.12 9.43Q36.03 9.34 35.96 9.26L35.96 9.26L35.96 9.26Q35.79 9.05 35.65 8.83L35.65 8.83L35.65 8.83Q35.55 8.67 35.44 8.53L35.44 8.53L35.44 8.53Q35.33 8.39 35.24 8.23L35.24 8.23L35.24 8.23Q34.97 7.74 34.56 7.58L34.56 7.58L34.56 7.58Q34.13 7.42 33.93 7.70L33.93 7.70L33.93 7.70Q33.87 7.80 33.87 7.92L33.87 7.92L33.87 9.40L33.87 9.49L33.87 9.49Q33.87 9.69 33.66 9.70L33.66 9.70L33.66 9.70Q33.45 9.69 33.45 9.44L33.45 9.44L33.45 9.44Q33.45 9.28 33.46 9.12L33.46 9.12L33.46 9.12Q33.47 8.95 33.48 8.76L33.48 8.76L33.48 8.76Q33.48 8.63 33.47 8.49L33.47 8.49L33.47 8.49Q33.46 8.35 33.46 8.22L33.46 8.22L33.46 8.22Q33.46 8.09 33.47 7.96L33.47 7.96L33.47 7.96Q33.48 7.83 33.48 7.70L33.48 7.70L33.48 7.70Q33.48 7.40 33.46 7.07L33.46 7.07L33.46 7.07Q33.46 6.84 33.47 6.61L33.47 6.61L33.47 6.61Q33.48 6.38 33.47 6.14L33.47 6.14L33.47 6.14Q33.46 6.02 33.46 5.86L33.46 5.86L33.46 5.86Q33.46 5.71 33.50 5.58L33.50 5.58L33.50 5.58Q33.63 5.42 34.08 5.42L34.08 5.42L34.30 5.42L34.30 5.42Q34.54 5.42 34.79 5.44L34.79 5.44L34.79 5.44Q35.04 5.46 35.29 5.45L35.29 5.45L35.29 5.45Q35.85 5.42 36.18 5.67ZM34.26 7.15L34.26 7.15L34.26 7.15Q34.52 7.16 34.72 7.16L34.72 7.16L34.72 7.16Q34.92 7.16 35.05 7.14L35.05 7.14L35.05 7.14Q35.18 7.13 35.35 7.11L35.35 7.11L35.35 7.11Q35.51 7.09 35.70 7.05L35.70 7.05L35.70 7.05Q36.09 6.97 36.20 6.69L36.20 6.69L36.20 6.69Q36.25 6.59 36.24 6.47L36.24 6.47L36.24 6.47Q36.22 6.34 36.16 6.24L36.16 6.24L36.16 6.24Q36.09 6.14 35.99 6.07L35.99 6.07L35.99 6.07Q35.90 6.00 35.78 5.94L35.78 5.94L35.78 5.94Q35.66 5.89 35.55 5.87L35.55 5.87L35.55 5.87Q35.27 5.82 34.98 5.83L34.98 5.83L34.98 5.83Q34.70 5.84 34.41 5.82L34.41 5.82L34.41 5.82Q34.36 5.82 34.31 5.82L34.31 5.82L34.31 5.82Q34.25 5.82 34.20 5.82L34.20 5.82L34.20 5.82Q34.06 5.81 33.98 5.89L33.98 5.89L33.98 5.89Q33.92 5.96 33.93 6.08L33.93 6.08L33.93 6.08Q33.94 6.12 33.94 6.23L33.94 6.23L33.94 6.23Q33.93 6.33 33.92 6.43L33.92 6.43L33.92 6.43Q33.90 6.52 33.89 6.62L33.89 6.62L33.89 6.62Q33.85 6.88 33.95 7.01L33.95 7.01L33.95 7.01Q34.04 7.14 34.26 7.15ZM44.37 5.75L44.37 5.75L44.37 5.75Q44.27 5.86 44.05 5.84L44.05 5.84L43.71 5.82L43.71 5.82Q43.61 5.82 43.51 5.81L43.51 5.81L43.51 5.81Q43.42 5.80 43.31 5.80L43.31 5.80L43.31 5.80Q43.11 5.80 43.01 5.89L43.01 5.89L43.01 5.89Q42.94 5.98 42.94 6.19L42.94 6.19L42.94 6.19Q42.94 6.28 42.95 6.37L42.95 6.37L42.95 6.37Q42.96 6.47 42.96 6.56L42.96 6.56L42.96 6.56Q42.96 6.79 42.97 6.96L42.97 6.96L42.97 6.96Q42.97 7.12 42.97 7.24L42.97 7.24L42.97 7.24Q42.97 7.59 42.93 7.94L42.93 7.94L42.93 7.94Q42.91 8.10 42.93 8.26L42.93 8.26L42.93 8.26Q42.95 8.43 42.96 8.59L42.96 8.59L42.96 8.59Q42.96 8.76 42.97 8.89L42.97 8.89L42.97 8.89Q42.97 9.02 42.97 9.11L42.97 9.11L42.97 9.11Q42.97 9.15 42.97 9.20L42.97 9.20L42.97 9.20Q42.97 9.26 42.96 9.35L42.96 9.35L42.96 9.35Q42.95 9.54 42.94 9.58L42.94 9.58L42.94 9.58Q42.85 9.73 42.70 9.69L42.70 9.69L42.70 9.69Q42.53 9.65 42.53 9.43L42.53 9.43L42.53 9.43Q42.52 9.22 42.54 9.01L42.54 9.01L42.54 9.01Q42.55 8.80 42.57 8.60L42.57 8.60L42.57 8.60Q42.59 8.36 42.56 8.11L42.56 8.11L42.56 8.11Q42.54 7.87 42.54 7.62L42.54 7.62L42.54 7.62Q42.54 7.40 42.56 7.17L42.56 7.17L42.56 7.17Q42.57 6.94 42.58 6.71L42.58 6.71L42.58 6.71Q42.58 6.27 42.44 6.08L42.44 6.08L42.44 6.08Q42.36 5.99 42.26 5.94L42.26 5.94L42.26 5.94Q42.15 5.89 42.02 5.87L42.02 5.87L42.02 5.87Q41.89 5.86 41.78 5.85L41.78 5.85L41.78 5.85Q41.67 5.84 41.56 5.84L41.56 5.84L41.56 5.84Q41.47 5.84 41.35 5.84L41.35 5.84L41.35 5.84Q41.22 5.84 41.15 5.80L41.15 5.80L41.15 5.80Q41.10 5.77 41.08 5.67L41.08 5.67L41.08 5.67Q41.07 5.59 41.10 5.54L41.10 5.54L41.10 5.54Q41.15 5.46 41.34 5.43L41.34 5.43L41.34 5.43Q41.36 5.43 41.42 5.43L41.42 5.43L41.42 5.43Q41.71 5.42 41.98 5.45L41.98 5.45L41.98 5.45Q42.25 5.48 42.53 5.46L42.53 5.46L42.53 5.46Q42.65 5.46 42.76 5.44L42.76 5.44L42.76 5.44Q42.88 5.43 43.00 5.43L43.00 5.43L43.00 5.43Q43.22 5.43 43.45 5.43L43.45 5.43L43.45 5.43Q43.68 5.43 43.91 5.42L43.91 5.42L43.91 5.42Q44.02 5.42 44.11 5.43L44.11 5.43L44.11 5.43Q44.19 5.43 44.26 5.46L44.26 5.46L44.26 5.46Q44.47 5.61 44.37 5.75ZM49.38 9.47L49.38 9.47L49.38 9.47Q49.38 9.65 49.23 9.69L49.23 9.69L49.23 9.69Q49.11 9.75 49.01 9.61L49.01 9.61L49.01 9.61Q48.97 9.54 48.94 9.49L48.94 9.49L48.94 9.49Q48.90 9.43 48.88 9.39L48.88 9.39L48.88 9.39Q48.79 9.18 48.71 9.03L48.71 9.03L48.71 9.03Q48.64 8.87 48.56 8.78L48.56 8.78L48.56 8.78Q48.40 8.55 48.20 8.49L48.20 8.49L48.20 8.49Q48.03 8.44 47.65 8.48L47.65 8.48L47.65 8.48Q47.43 8.50 47.24 8.51L47.24 8.51L47.24 8.51Q47.04 8.52 46.87 8.50L46.87 8.50L46.87 8.50Q46.47 8.48 46.28 8.76L46.28 8.76L46.27 8.78L46.26 8.79L46.26 8.79Q46.19 8.93 46.15 9.06L46.15 9.06L46.15 9.06Q46.10 9.19 46.04 9.32L46.04 9.32L45.90 9.54L45.90 9.54Q45.80 9.69 45.70 9.70L45.70 9.70L45.70 9.70Q45.65 9.72 45.56 9.65L45.56 9.65L45.56 9.65Q45.52 9.60 45.51 9.55L45.51 9.55L45.51 9.55Q45.50 9.49 45.51 9.43L45.51 9.43L45.51 9.43Q45.52 9.37 45.54 9.30L45.54 9.30L45.54 9.30Q45.57 9.24 45.59 9.19L45.59 9.19L45.75 8.85L45.75 8.85Q45.99 8.35 46.20 7.85L46.20 7.85L46.20 7.85Q46.41 7.34 46.64 6.83L46.64 6.83L46.64 6.83Q46.68 6.74 46.71 6.66L46.71 6.66L46.71 6.66Q46.74 6.58 46.78 6.51L46.78 6.51L46.78 6.51Q46.85 6.32 46.93 6.14L46.93 6.14L46.93 6.14Q47.00 5.95 47.10 5.76L47.10 5.76L47.20 5.61L47.20 5.61Q47.28 5.48 47.35 5.48L47.35 5.48L47.35 5.48Q47.41 5.46 47.52 5.59L47.52 5.59L47.52 5.59Q47.64 5.73 47.75 5.91L47.75 5.91L47.75 5.91Q47.85 6.10 47.93 6.26L47.93 6.26L47.93 6.26Q48.17 6.77 48.37 7.28L48.37 7.28L48.37 7.28Q48.58 7.79 48.82 8.28L48.82 8.28L48.82 8.28Q48.90 8.43 48.97 8.58L48.97 8.58L48.97 8.58Q49.04 8.74 49.12 8.88L49.12 8.88L49.12 8.88Q49.16 8.98 49.21 9.08L49.21 9.08L49.21 9.08Q49.25 9.17 49.29 9.27L49.29 9.27L49.29 9.27Q49.33 9.34 49.35 9.39L49.35 9.39L49.35 9.39Q49.37 9.44 49.38 9.47ZM48.02 7.56L48.02 7.56L48.02 7.56Q47.95 7.40 47.89 7.22L47.89 7.22L47.89 7.22Q47.82 7.05 47.74 6.88L47.74 6.88L47.74 6.88Q47.57 6.57 47.37 6.58L47.37 6.58L47.37 6.58Q47.30 6.58 47.24 6.62L47.24 6.62L47.24 6.62Q47.18 6.67 47.14 6.72L47.14 6.72L47.14 6.72Q47.10 6.78 47.07 6.85L47.07 6.85L47.07 6.85Q47.03 6.92 47.01 6.98L47.01 6.98L47.01 6.98Q46.94 7.18 46.87 7.40L46.87 7.40L46.87 7.40Q46.80 7.62 46.74 7.83L46.74 7.83L46.74 7.83Q46.69 7.98 46.75 8.05L46.75 8.05L46.75 8.05Q46.79 8.12 46.96 8.13L46.96 8.13L46.96 8.13Q47.11 8.14 47.23 8.15L47.23 8.15L47.23 8.15Q47.35 8.15 47.42 8.14L47.42 8.14L47.42 8.14Q47.57 8.14 47.82 8.10L47.82 8.10L47.82 8.10Q48.07 8.06 48.12 7.88L48.12 7.88L48.12 7.88Q48.14 7.77 48.09 7.69L48.09 7.69L48.09 7.69Q48.08 7.66 48.05 7.63L48.05 7.63L48.05 7.63Q48.03 7.59 48.02 7.56ZM54.06 9.08L54.06 9.08L54.06 9.08Q53.94 9.23 53.84 9.34L53.84 9.34L53.84 9.34Q53.73 9.45 53.61 9.53L53.61 9.53L53.61 9.53Q53.50 9.60 53.36 9.66L53.36 9.66L53.36 9.66Q53.22 9.71 53.04 9.73L53.04 9.73L53.04 9.73Q52.95 9.74 52.86 9.74L52.86 9.74L52.86 9.74Q52.76 9.75 52.65 9.73L52.65 9.73L52.65 9.73Q52.50 9.72 52.36 9.72L52.36 9.72L52.36 9.72Q52.21 9.72 52.06 9.69L52.06 9.69L52.06 9.69Q51.73 9.61 51.52 9.46L51.52 9.46L51.52 9.46Q51.30 9.31 51.18 9.07L51.18 9.07L51.18 9.07Q51.03 8.74 51.35 8.73L51.35 8.73L51.35 8.73Q51.41 8.73 51.48 8.81L51.48 8.81L51.48 8.81Q51.55 8.89 51.59 8.93L51.59 8.93L51.59 8.93Q51.73 9.07 51.75 9.08L51.75 9.08L51.76 9.08L51.76 9.09L51.76 9.09Q52.10 9.32 52.65 9.32L52.65 9.32L52.66 9.32L52.66 9.32L52.66 9.32Q52.90 9.32 53.26 9.23L53.26 9.23L53.26 9.23Q53.61 9.14 53.73 8.87L53.73 8.87L53.73 8.87Q53.79 8.70 53.73 8.51L53.73 8.51L53.73 8.50L53.73 8.50Q53.56 8.14 53.07 8.02L53.07 8.02L52.23 7.80L52.23 7.80Q52.05 7.76 51.80 7.63L51.80 7.63L51.80 7.63Q51.67 7.56 51.57 7.51L51.57 7.51L51.57 7.51Q51.47 7.45 51.41 7.40L51.41 7.40L51.41 7.40Q51.13 7.19 51.08 6.99L51.08 6.99L51.08 6.99Q51.08 6.95 51.08 6.89L51.08 6.89L51.08 6.89Q51.08 6.83 51.08 6.74L51.08 6.74L51.08 6.74Q51.08 6.64 51.09 6.55L51.09 6.55L51.09 6.55Q51.11 6.46 51.12 6.36L51.12 6.36L51.12 6.36Q51.16 6.04 51.39 5.80L51.39 5.80L51.39 5.80Q51.49 5.69 51.64 5.62L51.64 5.62L51.64 5.62Q51.78 5.55 51.92 5.49L51.92 5.49L51.92 5.49Q52.11 5.40 52.32 5.40L52.32 5.40L52.32 5.40Q52.53 5.39 52.73 5.40L52.73 5.40L52.73 5.40Q53.40 5.42 53.78 5.87L53.78 5.87L53.78 5.87Q53.95 6.08 53.91 6.22L53.91 6.22L53.86 6.26L53.86 6.26Q53.75 6.32 53.60 6.19L53.60 6.19L53.60 6.19Q53.56 6.16 53.53 6.13L53.53 6.13L53.53 6.13Q53.49 6.09 53.46 6.06L53.46 6.06L53.46 6.06Q53.42 6.02 53.37 5.98L53.37 5.98L53.37 5.98Q53.31 5.95 53.25 5.91L53.25 5.91L53.23 5.90L53.21 5.90L53.21 5.90Q52.96 5.82 52.69 5.81L52.69 5.81L52.69 5.81Q52.43 5.80 52.15 5.86L52.15 5.86L52.15 5.86Q51.82 5.93 51.64 6.14L51.64 6.14L51.64 6.14Q51.46 6.34 51.46 6.67L51.46 6.67L51.46 6.69L51.47 6.70L51.47 6.70Q51.50 7.12 52.12 7.30L52.12 7.30L52.32 7.36L52.83 7.53L52.83 7.53Q52.94 7.57 53.06 7.62L53.06 7.62L53.06 7.62Q53.18 7.67 53.31 7.72L53.31 7.72L53.31 7.72Q53.50 7.81 53.66 7.90L53.66 7.90L53.66 7.90Q53.83 7.98 53.96 8.07L53.96 8.07L53.96 8.07Q54.06 8.13 54.11 8.22L54.11 8.22L54.11 8.22Q54.16 8.31 54.18 8.41L54.18 8.41L54.18 8.41Q54.20 8.51 54.19 8.62L54.19 8.62L54.19 8.62Q54.19 8.73 54.17 8.82L54.17 8.82L54.17 8.82Q54.15 8.89 54.12 8.96L54.12 8.96L54.12 8.96Q54.09 9.03 54.06 9.08ZM55.86 5.50L55.86 5.50L55.86 5.50Q56.21 5.21 56.25 5.67L56.25 5.67L56.25 5.67Q56.27 5.76 56.27 5.87L56.27 5.87L56.27 5.87Q56.27 5.97 56.26 6.08L56.26 6.08L56.26 6.08Q56.25 6.21 56.25 6.32L56.25 6.32L56.25 6.32Q56.25 6.44 56.25 6.56L56.25 6.56L56.25 6.56Q56.26 6.90 56.42 6.96L56.42 6.96L56.42 6.96Q56.58 7.02 56.76 6.82L56.76 6.82L56.76 6.82Q56.88 6.69 57.02 6.54L57.02 6.54L57.02 6.54Q57.16 6.39 57.32 6.25L57.32 6.25L57.32 6.25Q57.46 6.14 57.59 6.02L57.59 6.02L57.59 6.02Q57.72 5.89 57.85 5.77L57.85 5.77L57.85 5.77Q57.87 5.74 57.93 5.70L57.93 5.70L57.93 5.70Q57.99 5.65 58.08 5.58L58.08 5.58L58.08 5.58Q58.24 5.46 58.32 5.43L58.32 5.43L58.32 5.43Q58.47 5.41 58.55 5.51L58.55 5.51L58.55 5.51Q58.61 5.63 58.50 5.74L58.50 5.74L58.50 5.74Q58.41 5.87 58.33 5.96L58.33 5.96L58.33 5.96Q58.26 6.04 58.21 6.09L58.21 6.09L58.21 6.09Q58.11 6.19 57.86 6.38L57.86 6.38L57.86 6.38Q57.75 6.46 57.63 6.56L57.63 6.56L57.63 6.56Q57.52 6.65 57.42 6.75L57.42 6.75L57.42 6.75Q57.25 6.94 57.23 7.10L57.23 7.10L57.23 7.10Q57.22 7.18 57.25 7.28L57.25 7.28L57.25 7.28Q57.27 7.38 57.34 7.50L57.34 7.50L57.34 7.50Q57.40 7.62 57.47 7.74L57.47 7.74L57.47 7.74Q57.54 7.86 57.60 7.98L57.60 7.98L57.60 7.98Q57.63 8.05 57.66 8.11L57.66 8.11L57.66 8.11Q57.69 8.16 57.70 8.20L57.70 8.20L57.70 8.20L57.70 8.20Q57.86 8.50 58.09 8.78L58.09 8.78L58.09 8.78Q58.32 9.06 58.61 9.34L58.61 9.34L58.61 9.34Q58.76 9.48 58.61 9.63L58.61 9.63L58.61 9.63Q58.46 9.79 58.31 9.64L58.31 9.64L58.31 9.64Q57.78 9.14 57.53 8.74L57.53 8.74L57.53 8.74Q57.37 8.49 57.24 8.22L57.24 8.22L57.24 8.22Q57.11 7.95 56.98 7.68L56.98 7.68L56.98 7.68Q56.88 7.46 56.73 7.45L56.73 7.45L56.73 7.45Q56.61 7.45 56.42 7.67L56.42 7.67L56.42 7.67Q56.35 7.77 56.31 7.87L56.31 7.87L56.31 7.87Q56.28 7.97 56.27 8.08L56.27 8.08L56.27 8.08Q56.25 8.24 56.29 8.40L56.29 8.40L56.29 8.40Q56.32 8.57 56.30 8.72L56.30 8.72L56.30 8.72Q56.30 8.76 56.29 8.78L56.29 8.78L56.29 8.78Q56.27 8.97 56.26 9.14L56.26 9.14L56.26 9.14Q56.25 9.32 56.26 9.48L56.26 9.48L56.26 9.48Q56.26 9.68 56.03 9.70L56.03 9.70L56.03 9.70Q55.84 9.69 55.84 9.49L55.84 9.49L55.84 9.49Q55.84 9.16 55.83 8.84L55.83 8.84L55.83 8.84Q55.82 8.51 55.80 8.18L55.80 8.18L55.80 8.18Q55.79 7.94 55.82 7.69L55.82 7.69L55.82 7.69Q55.86 7.44 55.86 7.20L55.86 7.20L55.86 7.20Q55.86 7.11 55.86 7.01L55.86 7.01L55.86 7.01Q55.86 6.92 55.86 6.82L55.86 6.82L55.86 6.82Q55.87 6.47 55.86 6.33L55.86 6.33L55.79 5.91L55.79 5.91Q55.75 5.65 55.86 5.50ZM63.38 9.08L63.38 9.08L63.38 9.08Q63.27 9.23 63.16 9.34L63.16 9.34L63.16 9.34Q63.05 9.45 62.94 9.53L62.94 9.53L62.94 9.53Q62.82 9.60 62.68 9.66L62.68 9.66L62.68 9.66Q62.54 9.71 62.36 9.73L62.36 9.73L62.36 9.73Q62.28 9.74 62.18 9.74L62.18 9.74L62.18 9.74Q62.08 9.75 61.97 9.73L61.97 9.73L61.97 9.73Q61.82 9.72 61.68 9.72L61.68 9.72L61.68 9.72Q61.54 9.72 61.39 9.69L61.39 9.69L61.39 9.69Q61.06 9.61 60.84 9.46L60.84 9.46L60.84 9.46Q60.62 9.31 60.50 9.07L60.50 9.07L60.50 9.07Q60.35 8.74 60.68 8.73L60.68 8.73L60.68 8.73Q60.73 8.73 60.80 8.81L60.80 8.81L60.80 8.81Q60.87 8.89 60.92 8.93L60.92 8.93L60.92 8.93Q61.06 9.07 61.08 9.08L61.08 9.08L61.09 9.08L61.09 9.09L61.09 9.09Q61.42 9.32 61.97 9.32L61.97 9.32L61.98 9.32L61.99 9.32L61.99 9.32Q62.22 9.32 62.58 9.23L62.58 9.23L62.58 9.23Q62.94 9.14 63.05 8.87L63.05 8.87L63.05 8.87Q63.12 8.70 63.05 8.51L63.05 8.51L63.05 8.50L63.05 8.50Q62.88 8.14 62.39 8.02L62.39 8.02L61.55 7.80L61.55 7.80Q61.37 7.76 61.12 7.63L61.12 7.63L61.12 7.63Q60.99 7.56 60.89 7.51L60.89 7.51L60.89 7.51Q60.80 7.45 60.74 7.40L60.74 7.40L60.74 7.40Q60.46 7.19 60.41 6.99L60.41 6.99L60.41 6.99Q60.40 6.95 60.40 6.89L60.40 6.89L60.40 6.89Q60.40 6.83 60.40 6.74L60.40 6.74L60.40 6.74Q60.40 6.64 60.42 6.55L60.42 6.55L60.42 6.55Q60.43 6.46 60.44 6.36L60.44 6.36L60.44 6.36Q60.48 6.04 60.71 5.80L60.71 5.80L60.71 5.80Q60.81 5.69 60.96 5.62L60.96 5.62L60.96 5.62Q61.11 5.55 61.24 5.49L61.24 5.49L61.24 5.49Q61.43 5.40 61.64 5.40L61.64 5.40L61.64 5.40Q61.85 5.39 62.06 5.40L62.06 5.40L62.06 5.40Q62.73 5.42 63.10 5.87L63.10 5.87L63.10 5.87Q63.27 6.08 63.23 6.22L63.23 6.22L63.18 6.26L63.18 6.26Q63.08 6.32 62.92 6.19L62.92 6.19L62.92 6.19Q62.88 6.16 62.85 6.13L62.85 6.13L62.85 6.13Q62.82 6.09 62.78 6.06L62.78 6.06L62.78 6.06Q62.75 6.02 62.69 5.98L62.69 5.98L62.69 5.98Q62.64 5.95 62.57 5.91L62.57 5.91L62.56 5.90L62.54 5.90L62.54 5.90Q62.28 5.82 62.02 5.81L62.02 5.81L62.02 5.81Q61.76 5.80 61.48 5.86L61.48 5.86L61.48 5.86Q61.14 5.93 60.96 6.14L60.96 6.14L60.96 6.14Q60.79 6.34 60.79 6.67L60.79 6.67L60.79 6.69L60.79 6.70L60.79 6.70Q60.82 7.12 61.45 7.30L61.45 7.30L61.65 7.36L62.15 7.53L62.15 7.53Q62.27 7.57 62.38 7.62L62.38 7.62L62.38 7.62Q62.50 7.67 62.63 7.72L62.63 7.72L62.63 7.72Q62.82 7.81 62.99 7.90L62.99 7.90L62.99 7.90Q63.15 7.98 63.29 8.07L63.29 8.07L63.29 8.07Q63.38 8.13 63.43 8.22L63.43 8.22L63.43 8.22Q63.49 8.31 63.50 8.41L63.50 8.41L63.50 8.41Q63.52 8.51 63.52 8.62L63.52 8.62L63.52 8.62Q63.51 8.73 63.49 8.82L63.49 8.82L63.49 8.82Q63.48 8.89 63.45 8.96L63.45 8.96L63.45 8.96Q63.42 9.03 63.38 9.08Z"></path></g><defs data-v-fde0c5aa=""><linearGradient data-v-fde0c5aa="" gradientTransform="rotate(25)" id="256e30a4-36dc-476d-bccf-75869094fa9f" x1="0%" y1="0%" x2="100%" y2="0%"><stop data-v-fde0c5aa="" offset="0%" stop-color="#462AB9" stop-opacity="1"></stop><stop data-v-fde0c5aa="" offset="100%" stop-color="#737048" stop-opacity="1"></stop></linearGradient></defs><g data-v-fde0c5aa="" id="d86b3eca-32ef-4499-82f6-29fc9732c71c" stroke="none" fill="url(#256e30a4-36dc-476d-bccf-75869094fa9f)" transform="matrix(0.2193836318511635,0,0,0.2193836318511635,37.93779394428728,138.9759729179201)"><path d="M66.1 23c-4.8 0-8.7-3.9-8.7-8.7s3.9-8.7 8.7-8.7 8.7 3.9 8.7 8.7-3.9 8.7-8.7 8.7zm0-14.7c-3.2 0-5.9 2.6-5.9 5.9s2.6 5.9 5.9 5.9c3.2 0 5.9-2.6 5.9-5.9s-2.7-5.9-5.9-5.9zM74.8 73.2h11.4c.7 0 1.3-.5 1.4-1.3l.8-7.3 2.1-20.4v-.1c0-2.8-2.3-5.1-5.1-5.1s-5 2.2-5.1 5l-1.8 19H59.9c-.8 0-1.4.6-1.4 1.4v7.3c0 .8.6 1.4 1.4 1.4H72v6.6l-6.8 5.7c-.8-.4-1.6-.7-2.6-.7-2.8 0-5.1 2.3-5.1 5.1s2.3 5.1 5.1 5.1 5.1-2.3 5.1-5.1c0-.8-.2-1.6-.6-2.3l6.3-5.3 6.5 5.4c-.3.6-.5 1.4-.5 2.1 0 2.8 2.3 5.1 5.1 5.1s5.1-2.3 5.1-5.1-2.3-5.1-5.1-5.1c-1 0-1.9.3-2.7.8l-6.9-5.8v-6.4zm-13.5-7.3h18.5c.7 0 1.3-.6 1.4-1.3l2.1-20.4v-.1c0-1.2 1-2.2 2.2-2.2 1.2 0 2.2 1 2.2 2.2l-2.1 20.3-.7 6H61.3v-4.5zM62.6 92c-1.2 0-2.2-1-2.2-2.2 0-1.2 1-2.2 2.2-2.2 1.2 0 2.2 1 2.2 2.2 0 1.3-1 2.2-2.2 2.2zm21.9-4.4c1.2 0 2.2 1 2.2 2.2 0 1.2-1 2.2-2.2 2.2-1.2 0-2.2-1-2.2-2.2-.1-1.2.9-2.2 2.2-2.2zM23 6.5h-6c-.8 0-1.4.6-1.4 1.4v14h-2.1c-.7 0-1.3.5-1.4 1.3L9.4 44.7c0 .4.1.8.3 1.1.3.3.7.5 1.1.5h10.7c.8 0 1.4-.6 1.4-1.4s-.6-1.4-1.4-1.4h-9.1l2.3-18.7h.8v14c0 .8.6 1.4 1.4 1.4h6c.8 0 1.4-.6 1.4-1.4V8c.1-.8-.5-1.5-1.3-1.5zm-1.4 30.8h-3.1V9.4h3.1v27.9z"></path><path d="M71.7 24.2c-1.7 0-3.3.7-4.6 1.7L50.9 38.4H37.1c-2.1 0-3.9 1.7-3.9 3.9s1.7 3.9 3.9 3.9h15.2c.9 0 1.8-.3 2.5-.9l9.9-7.7 1.6 17.2-14 4c-.6.2-1.1.4-1.5.8v-2.3h5.3c.8 0 1.4-.6 1.4-1.4v-7.1c0-.8-.6-1.4-1.4-1.4H10.8c-.8 0-1.4.6-1.4 1.4v7.1c0 .8.6 1.4 1.4 1.4h5.3V93c0 .8.6 1.4 1.4 1.4h6.3c.8 0 1.4-.6 1.4-1.4v-6.2h8.3c-.4.8-.5 1.7-.3 2.6.2 1 .9 1.9 1.7 2.4.6.4 1.3.6 2.1.6 1.4 0 2.6-.7 3.3-1.8l1.1-1.8V93c0 .4.2.7.4 1 .3.3.6.4 1 .4h6.4c.8 0 1.4-.6 1.4-1.4V74l5.1-8.1 16.9-4.8c1.4-.4 2.4-1.5 2.7-2.8 0-.1.1-.2.1-.3v-.1-.1l2.8-25.2c.1-.5.2-1 .2-1.5.2-3.8-2.9-6.9-6.7-6.9zM37.1 89.8c-.2 0-.5-.1-.7-.2-.6-.4-.8-1.2-.4-1.8l.7-1h3.1l-1.5 2.4c-.3.4-.7.6-1.2.6zm10.8-34v35.7h-3.5v-6.2c0-.4-.2-.7-.4-1-.3-.3-.6-.4-1-.4H23.9c-.8 0-1.4.6-1.4 1.4v6.2H19V55.8c0-.8-.6-1.4-1.4-1.4h-5.3v-4.3h42.4v4.3h-5.3c-.8 0-1.5.7-1.5 1.4zM75.8 32v.1L73 57.4c0 .5-.4 1-.9 1.2l-17.8 5-3.4 5.4v-4.9l1.5-2.3c.2-.3.4-.5.8-.6L68.1 57c.8-.4.9-.9.9-1.2l-1.9-20.1 2.6-2c.3-.2.5-.6.5-1 0-.6-.4-1.1-1-1.2-.1 0-.2-.1-.3-.1-.2 0-.4.1-.6.2l-15 11.6c-.2.2-.5.3-.9.3H37.2c-.7 0-1.3-.6-1.3-1.3 0-.7.6-1.3 1.3-1.3h14.7l16.9-13c.1-.1.1-.1.2-.1.7-.6 1.7-1 2.7-1 2.4 0 4.3 1.9 4.3 4.3-.1.3-.1.6-.2.9z"></path></g><!----></svg>